<?xml version="1.0" encoding="utf-8"?>
<!-- Generator: Adobe Illustrator 26.0.1, SVG Export Plug-In . SVG Version: 6.00 Build 0)  -->
<svg version="1.1" id="Layer_1" xmlns="http://www.w3.org/2000/svg" xmlns:xlink="http://www.w3.org/1999/xlink" x="0px" y="0px"
	 viewBox="0 0 547.2 548.6" style="enable-background:new 0 0 547.2 548.6;" xml:space="preserve">
<style type="text/css">
	.st0{fill:none;stroke:#FDD93B;stroke-width:20;stroke-linecap:round;stroke-linejoin:round;}
	
		.st1{opacity:0.3;fill:none;stroke:#FDD93B;stroke-width:20;stroke-linecap:round;stroke-linejoin:round;enable-background:new    ;}
	.st2{fill:#FEDC3B;}
	.st3{opacity:0.785;fill:#FFA700;enable-background:new    ;}
</style>
<g id="Group_7396" transform="translate(-2395.802 -809.503)">
	<g id="Group_7374" transform="translate(2624 996)">
		<g id="Group_7328" transform="translate(0)">
			<line id="Line_330" class="st0" x1="-176.6" y1="75.6" x2="-176.6" y2="75.6"/>
			<line id="Line_331" class="st0" x1="45.4" y1="-146.4" x2="45.4" y2="-146.4"/>
			<line id="Line_332" class="st1" x1="45.4" y1="297.5" x2="45.4" y2="297.5"/>
			<line id="Line_333" class="st0" x1="267.4" y1="75.6" x2="267.4" y2="75.6"/>
			<line id="Line_335" class="st1" x1="202.4" y1="232.5" x2="202.4" y2="232.5"/>
			<line id="Line_337" class="st1" x1="202.4" y1="-81.4" x2="202.4" y2="-81.4"/>
			<line id="Line_338" class="st0" x1="-176.6" y1="75.6" x2="-176.6" y2="75.6"/>
			<line id="Line_339" class="st0" x1="45.4" y1="-146.4" x2="45.4" y2="-146.4"/>
			<line id="Line_340" class="st1" x1="45.4" y1="297.5" x2="45.4" y2="297.5"/>
			<line id="Line_341" class="st0" x1="267.4" y1="75.6" x2="267.4" y2="75.6"/>
			<line id="Line_342" class="st1" x1="-111.5" y1="-81.4" x2="-111.5" y2="-81.4"/>
			<line id="Line_343" class="st1" x1="202.4" y1="232.5" x2="202.4" y2="232.5"/>
			<line id="Line_344" class="st0" x1="-111.5" y1="232.5" x2="-111.5" y2="232.5"/>
			<line id="Line_345" class="st1" x1="202.4" y1="-81.4" x2="202.4" y2="-81.4"/>
		</g>
		<g id="Group_7327" transform="translate(0.175 40.899)">
			<ellipse id="Ellipse_100" class="st2" cx="45.2" cy="32.6" rx="179" ry="179"/>
			<path id="Path_4989" class="st3" d="M41,55.4C-12.4,33.7,6.7-22.3-17.3-36.1c-35.9-20.6-38.8-28.3-68.2-9.2
				c-48.7,31.6-50.1,122.3-5.7,190.8c22.4,34.5,72.3,58.9,120.6,58.1c47.6-0.8,93.5-26.5,117.7-42.2c32.8-21.3,58.1-63,48.9-110.6
				C191.7,28.4,94.3,77.2,41,55.4z"/>
		</g>
	</g>
</g>
</svg>
