<?xml version="1.0" encoding="utf-8"?>
<!-- Generator: Adobe Illustrator 26.0.1, SVG Export Plug-In . SVG Version: 6.00 Build 0)  -->
<svg version="1.1" id="Layer_1" xmlns="http://www.w3.org/2000/svg" xmlns:xlink="http://www.w3.org/1999/xlink" x="0px" y="0px"
	 viewBox="0 0 675.4 613" style="enable-background:new 0 0 675.4 613;" xml:space="preserve">
<style type="text/css">
	.st0{fill:#FEDC3B;}
	.st1{fill:#FFA700;}
	.st2{fill:#F7F9FF;}
	
		.st3{opacity:0.522;fill:none;stroke:#FFFFFF;stroke-width:8;stroke-linecap:round;stroke-linejoin:round;enable-background:new    ;}
	.st4{fill:url(#Union_21_00000025434686362242506400000013901050437666387350_);}
	.st5{fill:url(#Union_22_00000089573814140491985000000017284017604731573662_);}
	.st6{opacity:0.349;fill:#FFFFFF;enable-background:new    ;}
	.st7{fill:none;stroke:#FDD93B;stroke-width:20;stroke-linecap:round;stroke-linejoin:round;}
	
		.st8{opacity:0.3;fill:none;stroke:#FDD93B;stroke-width:20;stroke-linecap:round;stroke-linejoin:round;enable-background:new    ;}
</style>
<g id="Group_7387" transform="translate(-3626.677 -790.753)">
	<g id="Group_7373" transform="translate(3783 992.198)">
		<ellipse id="Ellipse_95" class="st0" cx="281.3" cy="59.8" rx="143.4" ry="143.4"/>
		<path id="Path_4978" class="st1" d="M284.1,77.9c42.8-17.4,27.4-62.3,46.7-73.3c28.8-16.5,31.1-22.6,54.6-7.3
			c39,25.3,40.2,98,4.5,152.8s-151.9,38.1-190.9,12.7c-26.3-17.1-46.5-50.4-39.2-88.6C163.4,56.2,241.4,95.3,284.1,77.9z"/>
		<path id="Path_4975" class="st2" d="M419.2,220.8c0-77.5-62.7-140.4-140.3-140.6l0,0c0-77.7-63-140.6-140.6-140.6
			S-2.3,2.5-2.3,80.2l0,0h-0.4c-77.7,0-140.6,63-140.6,140.6c0,77.7,63,140.6,140.6,140.6c1.2,0,2.4,0,3.7,0v0h281.3v0
			C358.5,359.4,419.2,297,419.2,220.8z"/>
		<path id="Path_4982" class="st3" d="M71.4,141.7C51,106.2,13.9,83.6-27,81.8c-66.1-2.9-122,48.2-125,114.3"/>
		
			<linearGradient id="Union_21_00000047055111381646345840000017993325959016209798_" gradientUnits="userSpaceOnUse" x1="-123.4389" y1="501.9912" x2="-123.4139" y2="498.8259" gradientTransform="matrix(74.8418 77.4262 75.1729 -72.6636 -28355.123 46148.8789)">
			<stop  offset="0" style="stop-color:#E0E8FF;stop-opacity:0"/>
			<stop  offset="0.845" style="stop-color:#C7D4FF;stop-opacity:0.847"/>
			<stop  offset="1" style="stop-color:#C9D6FD"/>
		</linearGradient>
		<path id="Union_21" style="fill:url(#Union_21_00000047055111381646345840000017993325959016209798_);" d="M87,170.8
			c39.7,41.1,39.6,105.7-0.3,144.3s-104.5,36.5-144.2-4.6s-39.6-105.7,0.3-144.3S47.2,129.7,87,170.8z"/>
		
			<linearGradient id="Union_22_00000008145121951673543860000013604144459661270686_" gradientUnits="userSpaceOnUse" x1="-123.8826" y1="502.984" x2="-123.8576" y2="499.8187" gradientTransform="matrix(204.3996 0 0 -166.2606 25531.0605 83520.8047)">
			<stop  offset="0" style="stop-color:#E0E8FF;stop-opacity:0"/>
			<stop  offset="0.845" style="stop-color:#C7D4FF;stop-opacity:0.847"/>
			<stop  offset="1" style="stop-color:#C9D6FD"/>
		</linearGradient>
		<path id="Union_22" style="fill:url(#Union_22_00000008145121951673543860000013604144459661270686_);" d="M285.4,338
			c-36,1.1-96.6-2.8-112.7-2.8c-86.9,0-117.8-49-150.2-106.4s68.6-189.9,111.8-208c13.9-5.8,56.3,14.1,67.7,42.7
			c8.6,21.5,10.3,83.9,41.6,97.8c34.8,15.6,62.1,20.4,81,27.8c48.2,6.5,84.7,37.4,84.7,74.6c0,41.9-46.4,75.8-103.5,75.8
			C299,339.4,292.2,339,285.4,338z"/>
		<path id="Union_23" class="st6" d="M122.1,169.6c20.5,53.4,18.7,103.7-3.9,112.4c-22.7,8.7-57.6-27.5-78.1-80.9S21.3,97.4,44,88.7
			S101.6,116.2,122.1,169.6z"/>
	</g>
	<line id="Line_330" class="st7" x1="4264.3" y1="1063.5" x2="4264.3" y2="1063.5"/>
	<line id="Line_338" class="st7" x1="3965.5" y1="857" x2="3965.5" y2="857"/>
	<line id="Line_339" class="st7" x1="4264" y1="935.8" x2="4264" y2="935.8"/>
	<line id="Line_342" class="st8" x1="4097.2" y1="811.8" x2="4097.2" y2="811.8"/>
</g>
</svg>
