<svg xmlns="http://www.w3.org/2000/svg" xmlns:xlink="http://www.w3.org/1999/xlink" width="903.295" height="621.531" viewBox="0 0 903.295 621.531">
  <defs>
    <linearGradient id="linear-gradient" x1="0.487" y1="-0.392" x2="0.5" y2="1.254" gradientUnits="objectBoundingBox">
      <stop offset="0" stop-color="#e0e8ff" stop-opacity="0"/>
      <stop offset="0.845" stop-color="#c7d4ff" stop-opacity="0.847"/>
      <stop offset="1" stop-color="#c9d6fd"/>
    </linearGradient>
  </defs>
  <g id="Group_7403" data-name="Group 7403" transform="translate(-2412.576 -3057.236)">
    <g id="Group_7387" data-name="Group 7387">
      <g id="Group_7364" data-name="Group 7364" transform="translate(1946 -1089.308)">
        <g id="Group_7339" data-name="Group 7339" transform="translate(-2515 861.308)">
          <path id="Path_4982" data-name="Path 4982" d="M6079.467-837.235a118.435,118.435,0,0,0-97.433-59.2A118.529,118.529,0,0,0,5858.355-783.3" transform="translate(-2664.631 4335.257)" fill="none" stroke="#fff" stroke-linecap="round" stroke-linejoin="round" stroke-width="8" opacity="0.522"/>
          <g id="Group_7337" data-name="Group 7337" transform="translate(3136 3298)">
            <path id="Path_4975" data-name="Path 4975" d="M1874.353,624.343a139.169,139.169,0,0,0-138.809-139.167v0a139.171,139.171,0,0,0-278.343,0v0c-.121,0-.241,0-.362,0a139.171,139.171,0,0,0,0,278.343q1.817,0,3.624-.047v.047h278.343v-.047A139.173,139.173,0,0,0,1874.353,624.343Z" transform="translate(-1317.667 -346)" fill="#f7f9ff"/>
            <path id="Union_21" data-name="Union 21" d="M102.467,0c56.591,0,102.467,44.541,102.467,99.485s-45.876,99.485-102.467,99.485S0,154.428,0,99.485,45.876,0,102.467,0Z" transform="matrix(0.695, 0.719, -0.719, 0.695, 156.651, 155.185)" fill="url(#linear-gradient)"/>
            <path id="Union_22" data-name="Union 22" d="M266.395,314.959c-35.632,1.106-95.553-2.789-111.525-2.789C68.9,312.17,38.311,263.7,6.235,206.879S74.177,19,116.86,1.008c13.725-5.784,55.766,13.986,67.033,42.292,8.468,21.279,10.242,83.021,41.125,96.818,34.448,15.39,61.471,20.238,80.167,27.488C352.871,174.025,389,204.616,389,241.386c0,41.433-45.876,75.021-102.468,75.021A139.461,139.461,0,0,1,266.395,314.959Z" transform="translate(157.9 79.345)" fill="url(#linear-gradient)"/>
            <path id="Union_23" data-name="Union 23" d="M102.467,0c56.591,0,102.467,19.471,102.467,43.49S159.058,86.98,102.467,86.98,0,67.509,0,43.49,45.876,0,102.467,0Z" transform="translate(225.932 132.039) rotate(69)" fill="#fff" opacity="0.349"/>
          </g>
        </g>
      </g>
    </g>
    <g id="Group_7404" data-name="Group 7404" transform="translate(238.5 97.149)">
      <g id="Group_7364-2" data-name="Group 7364" transform="translate(2567 3070)">
        <g id="Group_7339-2" data-name="Group 7339" transform="translate(0)">
          <path id="Path_4982-2" data-name="Path 4982" d="M6030.737-850.308a92.334,92.334,0,0,0-75.96-46.156,92.407,92.407,0,0,0-96.422,88.207" transform="translate(-5813.353 1006.249)" fill="none" stroke="#fff" stroke-linecap="round" stroke-linejoin="round" stroke-width="8" opacity="0.522"/>
          <g id="Group_7337-2" data-name="Group 7337">
            <path id="Path_4975-2" data-name="Path 4975" d="M1751.667,563a108.5,108.5,0,0,0-108.218-108.5v0a108.5,108.5,0,0,0-217,0v0c-.094,0-.188,0-.282,0a108.5,108.5,0,0,0,0,217q1.417,0,2.825-.036v.036h217v-.036A108.5,108.5,0,0,0,1751.667,563Z" transform="translate(-1317.667 -346)" fill="#f7f9ff"/>
            <path id="Union_21-2" data-name="Union 21" d="M79.885,0C124,0,159.77,34.725,159.77,77.56S124,155.119,79.885,155.119,0,120.395,0,77.56,35.766,0,79.885,0Z" transform="matrix(0.695, 0.719, -0.719, 0.695, 122.128, 120.984)" fill="url(#linear-gradient)"/>
            <path id="Union_22-2" data-name="Union 22" d="M207.685,245.546c-27.779.863-74.494-2.174-86.946-2.174-67.028,0-90.872-37.791-115.879-82.086S57.83,14.809,91.105.786c10.7-4.509,43.476,10.9,52.26,32.971,6.6,16.589,7.985,64.724,32.062,75.48,26.856,12,47.924,15.778,62.5,21.43,37.177,5.005,65.344,28.854,65.344,57.52,0,32.3-35.766,58.488-79.885,58.488A108.726,108.726,0,0,1,207.685,245.546Z" transform="translate(123.101 61.859)" fill="url(#linear-gradient)"/>
            <path id="Union_23-2" data-name="Union 23" d="M79.885,0C124,0,159.77,15.18,159.77,33.905S124,67.811,79.885,67.811,0,52.631,0,33.905,35.766,0,79.885,0Z" transform="translate(176.14 102.94) rotate(69)" fill="#fff" opacity="0.349"/>
          </g>
        </g>
      </g>
    </g>
    <line id="Line_357" data-name="Line 357" transform="translate(2680.5 3540.5)" fill="none" stroke="#60a4f5" stroke-linecap="round" stroke-linejoin="round" stroke-width="20" opacity="0.999"/>
    <line id="Line_358" data-name="Line 358" transform="translate(3022.5 3550.5)" fill="none" stroke="#60a4f5" stroke-linecap="round" stroke-linejoin="round" stroke-width="20" opacity="0.999"/>
    <line id="Line_359" data-name="Line 359" transform="translate(2923.5 3626.5)" fill="none" stroke="#60a4f5" stroke-linecap="round" stroke-linejoin="round" stroke-width="20" opacity="0.999"/>
    <line id="Line_360" data-name="Line 360" transform="translate(2751.5 3662.5)" fill="none" stroke="#60a4f5" stroke-linecap="round" stroke-linejoin="round" stroke-width="20" opacity="0.3"/>
  </g>
</svg>
