<svg id="Group_7406" data-name="Group 7406" xmlns="http://www.w3.org/2000/svg" xmlns:xlink="http://www.w3.org/1999/xlink" width="1227.685" height="879.691" viewBox="0 0 1227.685 879.691">
  <defs>
    <linearGradient id="linear-gradient" x1="0.084" y1="0.081" x2="0.821" y2="0.895" gradientUnits="objectBoundingBox">
      <stop offset="0" stop-color="#30d298"/>
      <stop offset="0" stop-color="#30d197"/>
      <stop offset="1" stop-color="#18694c"/>
    </linearGradient>
    <clipPath id="clip-path">
      <rect id="Rectangle_493" data-name="Rectangle 493" width="1227.685" height="879.691" stroke="rgba(0,0,0,0)" stroke-width="1" fill="url(#linear-gradient)"/>
    </clipPath>
  </defs>
  <g id="Group_7405" data-name="Group 7405" clip-path="url(#clip-path)">
    <path id="Path_4996" data-name="Path 4996" d="M875.353,724.176c-68.244-1.192-132.344-18.129-193.3-48.237-41.431-20.463-77.923-47.9-112.79-77.818-29.982-25.726-60.567-50.655-95.253-70.018-32-17.863-65.65-30.992-102.267-35.231-37.938-4.39-74.764,1.006-110.421,14.347-48.157,18.018-88.782,46.782-121.5,86.495-7.223,8.768-16.119,11.386-26.729,8.929-10.767-2.493-18.238-8.952-20.777-19.939-2.358-10.2,1.323-19.024,7.677-26.869a306.487,306.487,0,0,1,63.221-58.569c41.286-28.809,86.512-48.175,136.242-56.783a272.986,272.986,0,0,1,91.483.025c63.479,10.433,118.428,39.078,168,79.053,28,22.585,55.029,46.474,83.93,67.834,52.24,38.6,110.154,65.287,174.648,76.127,54.105,9.093,107.617,7.254,159.621-11.739,33.03-12.064,63.12-29.144,87.6-55.09,17.554-18.607,26.386-40.883,28.881-65.981,1.738-17.478,1.819-34.9-1.79-52.224-6.2-29.77-22.9-51.1-51.26-62.4-32.222-12.835-64.357-13.444-95.379,3.818-19.371,10.778-30.732,27.679-34.43,49.51-4.58,27.037,22.551,50.088,49.6,42.037,6-1.785,11.744-4.66,17.347-7.538,10.187-5.23,20.025-5.243,28.989,2.05,9.337,7.6,13.507,17.536,10.931,29.711a21.161,21.161,0,0,1-10.118,14.317c-33.875,19.667-69.117,24.1-104.844,6.073-27.58-13.915-41.347-38.591-45.721-68.256-5.732-38.873,9.413-70.547,37.163-96.61,32.018-30.071,70.586-41.353,114-37.616,28.041,2.414,54.247,10.331,77.928,25.689,33.861,21.96,54.2,52.863,60.558,92.852,5.065,31.845,4.236,63.388-4.618,94.53-11.806,41.526-36.879,73.229-71.892,97.808-45.455,31.908-96,50.014-150.917,56.305-14.542,1.665-29.2,2.3-43.809,3.409" stroke="rgba(0,0,0,0)" stroke-width="1" fill="url(#linear-gradient)"/>
    <path id="Path_4997" data-name="Path 4997" d="M882.094,187.831H620.1V73.661H881.785V0c115.524,43.643,230.129,86.938,345.9,130.672-115.65,43.7-230.174,86.963-345.591,130.568Z" stroke="rgba(0,0,0,0)" stroke-width="1" fill="url(#linear-gradient)"/>
    <path id="Path_4998" data-name="Path 4998" d="M587.266,753.528,253.4,879.691c-.136-2.126-.336-3.83-.338-5.535-.027-20-.113-39.995.045-59.991.031-3.954-.817-5.382-5.194-5.376q-120.481.169-240.965,0c-2.152,0-4.3,0-6.944,0V698.31H252.866v-71.1l334.4,126.315" stroke="rgba(0,0,0,0)" stroke-width="1" fill="url(#linear-gradient)"/>
    <path id="Path_4999" data-name="Path 4999" d="M310.885,323.529c75.859,1.044,138.776,13.758,196.143,46.721,22.857,13.133,43.816,29.635,65.3,45.074,19.123,13.743,38.54,26.812,60.78,35.1,18.719,6.972,37.924,11.065,58.021,10.886,35.6-.317,62.613-18.874,75.247-52.2,5.823-15.361,8.566-31.172,5.419-47.53-3.887-20.2-15.35-34.326-34.592-41.914-11.607-4.578-23.607-7.013-36.14-6.08-19.027,1.415-28.3,12.516-25.81,31.348,1.349,10.178-2.112,17.98-10.267,23.812-8.671,6.2-18.067,7.681-27.788,2.852-8.793-4.368-12.865-12.318-14.388-21.592-6.093-37.1,10.641-66.628,45.481-80.522,44.72-17.834,100.884-4.441,131.531,31.654,18.758,22.094,26.893,48.141,25.847,76.79-1.8,49.25-21.368,89.353-63.845,116.1-27.04,17.029-57.375,21.369-88.849,19.143-46.931-3.319-87.448-22.668-125.1-49.558q-31.091-22.2-62.973-43.3c-29.739-19.777-62.884-30.768-97.816-37.155-50.009-9.142-99.726-8.92-149.1,3.89-53.729,13.938-99.2,42.415-139.093,80.272-10,9.492-19.121,19.96-28.226,30.348-11.018,12.57-28.464,14.392-41.577,3.838-10.314-8.3-12.06-20.457-3.815-31.4A321.17,321.17,0,0,1,46.89,443.913c57.1-61.085,126.4-100.281,209.068-114.455,21.427-3.674,43.305-4.721,54.927-5.929" stroke="rgba(0,0,0,0)" stroke-width="1" fill="url(#linear-gradient)"/>
  </g>
</svg>
