<svg xmlns="http://www.w3.org/2000/svg" xmlns:xlink="http://www.w3.org/1999/xlink" width="154.11" height="154.074" viewBox="0 0 154.11 154.074"><defs><linearGradient id="a" x1="0.5" x2="0.343" y2="0.783" gradientUnits="objectBoundingBox"><stop offset="0" stop-color="#30d298"/><stop offset="0" stop-color="#30d197"/><stop offset="1" stop-color="#18694c"/></linearGradient><clipPath id="b"><rect width="154.11" height="154.074" fill="url(#a)"/></clipPath></defs><g clip-path="url(#b)"><path d="M228.481,101.206c-.22,1.78-.43,3.562-.661,5.341a53.34,53.34,0,0,1-17.664,33.575,52.6,52.6,0,0,1-28.111,13.318,53.4,53.4,0,0,1-35.973-7.062c-2.244-1.328-2.229-3.85-.14-5.43a15.718,15.718,0,0,1,7.4-2.956c3.923-.6,6.373-3.17,7.454-6.971.8-2.82,1.785-3.354,4.672-2.964a23.783,23.783,0,0,0,7.122.294,9.462,9.462,0,0,0,6.826-13.128c-1.325-3.075-1.014-3.938,1.872-5.532,1.227-.678,2.34-1.584,3.607-2.163a12.709,12.709,0,0,1,4.2-1.354,10.058,10.058,0,0,0,9.048-9.929,9.909,9.909,0,0,0-9.311-9.619,24.086,24.086,0,0,0-15.425,4.96c-2.77,2.017-4.242,1.967-7.1.06-1.457-.972-2.979-1.852-4.508-2.707-1.858-1.038-2.5-2.471-1.613-4.374,3.454-7.392-2.716-15.076-10.834-14a27.826,27.826,0,0,0-12.981,5.045c-2.64,1.9-4.3,1.874-6.983-.016-.7-.491-1.405-.966-2.121-1.429-1.961-1.27-2.351-2.375-1.512-4.562a157.741,157.741,0,0,1,13.081-26.02A258.128,258.128,0,0,1,170.071,2.775,34.667,34.667,0,0,1,173.36,0h.9a18.243,18.243,0,0,1,2.795,2.19c5.49,6.314,11.133,12.514,16.313,19.077,11.461,14.522,21.4,30.005,28.277,47.284a87.393,87.393,0,0,1,6.2,24c.19,1.983.418,3.962.629,5.943Z" transform="translate(-74.371)" fill="url(#a)"/><path d="M58.515,202.507a16.657,16.657,0,0,1-10.643-3.533,12.862,12.862,0,0,0-7.715-2.926,11.906,11.906,0,0,0-7.138,2.368,18.6,18.6,0,0,1-7.636,3.7c-4.919.851-9.567.292-13.764-2.657-2-1.409-3.971-2.919-6.522-3.233-.545-.067-1.093-.135-1.641-.154C1.462,196,.02,194.749.01,193.051a3.236,3.236,0,0,1,3.543-3.112A16.674,16.674,0,0,1,11.71,192.2c.98.6,1.939,1.246,2.9,1.889,4.744,3.194,9.371,3.2,14.09-.111a19.314,19.314,0,0,1,9.441-3.9,17.406,17.406,0,0,1,10.806,2.3c.946.564,1.849,1.2,2.757,1.826a11.354,11.354,0,0,0,13.478.1c2.457-1.659,4.877-3.367,7.873-3.908a24.453,24.453,0,0,1,3.567-.45,3,3,0,0,1,3.36,3.034c.023,1.892-1.178,3.058-3.262,3.079a11.521,11.521,0,0,0-6.69,2.34c-2.5,1.787-5.1,3.379-8.225,3.822-1.086.154-2.189.2-3.284.289" transform="translate(-0.006 -112.71)" fill="url(#a)"/><path d="M58.541,321.031a16.706,16.706,0,0,1-10.648-3.521,13.176,13.176,0,0,0-7.108-2.928,12.056,12.056,0,0,0-8,2.5,17.679,17.679,0,0,1-7.38,3.543c-4.916.86-9.567.307-13.767-2.638-2.005-1.406-3.966-2.927-6.519-3.241-.545-.067-1.092-.142-1.64-.161-2.061-.069-3.563-1.42-3.466-3.144a3.275,3.275,0,0,1,3.665-2.99,16.955,16.955,0,0,1,8.527,2.552q1.193.786,2.379,1.582c4.755,3.205,9.38,3.214,14.09-.082a19.337,19.337,0,0,1,9.437-3.913,17.372,17.372,0,0,1,10.547,2.134c1.04.6,2.029,1.29,3.019,1.973a11.365,11.365,0,0,0,13.48.135c2.458-1.657,4.871-3.375,7.868-3.917a25.077,25.077,0,0,1,3.566-.458,3.006,3.006,0,0,1,3.385,3.007c.032,1.9-1.171,3.089-3.238,3.1a11.655,11.655,0,0,0-6.82,2.409,18.43,18.43,0,0,1-8.1,3.745c-1.087.154-2.188.2-3.283.3" transform="translate(-0.007 -183.039)" fill="url(#a)"/><path d="M112.487,281.574a16.422,16.422,0,0,1-10-3.117c-2.559-1.819-5.144-3.387-8.5-3.3a2.93,2.93,0,0,1-2.942-3.294,3.007,3.007,0,0,1,3.275-2.791,17.009,17.009,0,0,1,10.71,3.736,12.2,12.2,0,0,0,8.093,2.646,11.87,11.87,0,0,0,6.64-2.46,18.122,18.122,0,0,1,8.566-3.752c4.763-.555,9.25.009,13.362,2.763a42.152,42.152,0,0,0,5.92,3.138,7.693,7.693,0,0,0,2.514.276,3.062,3.062,0,0,1,3.145,3.274c-.066,1.778-1.3,2.847-3.328,2.87a17.015,17.015,0,0,1-10.813-3.888,12.477,12.477,0,0,0-11.241-2.059,16.194,16.194,0,0,0-4.857,2.588,17.649,17.649,0,0,1-10.542,3.367" transform="translate(-54.022 -159.659)" fill="url(#a)"/><path d="M157.942,229.512a16.813,16.813,0,0,1,10.76,3.665,12.706,12.706,0,0,0,6.85,2.788,11.693,11.693,0,0,0,7.751-2.323c2.454-1.771,5.005-3.367,8.076-3.8a21.549,21.549,0,0,1,3.887-.2,2.947,2.947,0,0,1,.054,5.843c-3.371.059-6.133,1.45-8.836,3.331-6.372,4.434-13.751,4.386-20.256.054-2.038-1.358-3.988-2.8-6.563-3.13a11.709,11.709,0,0,0-8.659,2.111c-2.373,1.694-4.809,3.286-7.757,3.8a29.873,29.873,0,0,1-3.273.434,3.283,3.283,0,0,1-3.671-2.972c-.095-1.763,1.356-3.125,3.434-3.147a12.048,12.048,0,0,0,7.055-2.631,17.46,17.46,0,0,1,7.715-3.515c1.135-.166,2.288-.216,3.432-.318" transform="translate(-80.883 -136.19)" fill="url(#a)"/><path d="M4.287,229.693a16.285,16.285,0,0,1,9.437,3.459,12.855,12.855,0,0,0,7.712,2.938,11.548,11.548,0,0,0,7-2.294c2.486-1.816,5.09-3.41,8.211-3.846a21.269,21.269,0,0,1,3.736-.2,2.95,2.95,0,0,1,2.723,2.89,2.911,2.911,0,0,1-2.634,2.974c-3.366.066-6.121,1.479-8.823,3.346a17.184,17.184,0,0,1-20.487-.173c-2.468-1.749-5.009-3.075-8.12-3.125A3.022,3.022,0,0,1,0,232.591a3.1,3.1,0,0,1,3.231-2.9c.351-.007.7,0,1.053,0" transform="translate(0 -136.301)" fill="url(#a)"/><path d="M20.1,281.589a17.788,17.788,0,0,1-8.886-3.255,36.221,36.221,0,0,0-5.558-2.845,8.886,8.886,0,0,0-2.52-.245,3.288,3.288,0,0,1-3.126-3.236,3.211,3.211,0,0,1,3.4-2.9,16.52,16.52,0,0,1,10.2,3.409c2.395,1.745,4.873,3.047,7.981,2.986a2.943,2.943,0,0,1,2.941,3.423c-.136,1.783-1.431,2.689-4.437,2.659" transform="translate(-0.002 -159.693)" fill="url(#a)"/></g></svg>