<svg id="Group_7410" data-name="Group 7410" xmlns="http://www.w3.org/2000/svg" xmlns:xlink="http://www.w3.org/1999/xlink" width="616.302" height="638.125" viewBox="0 0 616.302 638.125">
  <defs>
    <linearGradient id="linear-gradient" x1="0.5" x2="0.343" y2="0.783" gradientUnits="objectBoundingBox">
      <stop offset="0" stop-color="#30d298"/>
      <stop offset="0" stop-color="#30d197"/>
      <stop offset="1" stop-color="#18694c"/>
    </linearGradient>
    <clipPath id="clip-path">
      <rect id="Rectangle_495" data-name="Rectangle 495" width="616.302" height="638.125" stroke="rgba(0,0,0,0)" stroke-width="1" fill="url(#linear-gradient)"/>
    </clipPath>
  </defs>
  <g id="Group_7409" data-name="Group 7409" clip-path="url(#clip-path)">
    <path id="Path_5002" data-name="Path 5002" d="M499.746,275.17c0,42.994.058,85.988-.1,128.981-.015,4.125,1.152,6.533,4.64,8.879C546.63,441.5,566.74,493.4,555.053,543.457c-11.349,48.606-52.521,86.269-102.088,93.387-78.69,11.3-147.766-53.75-140.512-132.866,3.518-38.362,21.684-68.759,53.348-90.785,3.684-2.563,4.765-5.125,4.76-9.325q-.156-127.232-.068-254.463c.017-29.924,17.812-54.788,45.11-63.389,41.927-13.209,83.851,17.639,84.1,62.172.232,42.326.05,84.655.048,126.982m-106.694,6.88c0,45.155-.066,90.31.107,135.464.016,4.276-1.33,6.394-5.078,8.386a100.73,100.73,0,0,0,60.263,188.916c42.517-5.4,78.22-39.071,85.755-80.872,7.945-44.077-12.572-87.3-51.433-107.777-4.067-2.144-5.557-4.436-5.549-9.1q.231-133.464,0-266.929a53.133,53.133,0,0,0-2.637-17.12c-6.729-19.312-26.689-30.445-47.033-26.891A41.974,41.974,0,0,0,393.1,147.086c-.124,44.988-.039,89.976-.044,134.964" stroke="rgba(0,0,0,0)" stroke-width="1" fill="url(#linear-gradient)"/>
    <path id="Path_5003" data-name="Path 5003" d="M357.512,116.8c-1.9,8.012-3.614,15.247-5.384,22.712-5.9-.454-11.83-1.165-17.777-1.331-94.345-2.645-173.208,60.863-190.82,153.589-18.285,96.27,46.612,193.656,142.8,214.292,1.628.349,3.389.408,4.846,1.106,1.072.513,2.458,1.827,2.49,2.822.218,6.8.114,13.6.114,21.294-70.536-13.508-124.183-50.794-154.76-115.8-36.763-78.159-28.625-154.091,25.15-221.97,48.971-61.816,115.249-85.042,193.337-76.71" stroke="rgba(0,0,0,0)" stroke-width="1" fill="url(#linear-gradient)"/>
    <path id="Path_5004" data-name="Path 5004" d="M334.327,46.107c.005,11.98.03,23.96-.005,35.94-.018,6.185-3.259,9.679-8.827,9.67-5.514-.008-8.806-3.523-8.819-9.74q-.076-36.189-.02-72.378c.008-6.206,3.253-9.6,8.9-9.6s8.735,3.358,8.754,9.668c.037,12.146.011,24.293.016,36.439" stroke="rgba(0,0,0,0)" stroke-width="1" fill="url(#linear-gradient)"/>
    <path id="Path_5005" data-name="Path 5005" d="M169.186,42.188c1.084.845,3.912,2.051,5.169,4.184q19.133,32.457,37.785,65.2c2.481,4.332.83,8.867-3.647,11.437-4.359,2.5-9.208,1.571-11.7-2.71q-18.834-32.346-37.42-64.836c-3.493-6.12,1.029-13.187,9.813-13.273" stroke="rgba(0,0,0,0)" stroke-width="1" fill="url(#linear-gradient)"/>
    <path id="Path_5006" data-name="Path 5006" d="M124.255,202.084c-.115,9.03-7.1,13.393-13.3,9.846Q78.67,193.479,46.546,174.754c-4.618-2.683-5.666-7.428-2.977-12.006,2.7-4.594,7.245-5.962,11.92-3.275,21.493,12.351,42.986,24.7,64.336,37.3,2.248,1.327,3.564,4.235,4.43,5.312" stroke="rgba(0,0,0,0)" stroke-width="1" fill="url(#linear-gradient)"/>
    <path id="Path_5007" data-name="Path 5007" d="M213.379,536.611a38.556,38.556,0,0,1-1.826,4.1q-18.166,31.584-36.411,63.122c-3.079,5.32-7.659,6.594-12.556,3.663-4.726-2.827-5.829-7.3-2.886-12.414,12.2-21.194,24.482-42.344,36.65-63.558,2.361-4.115,5.732-5.506,10.068-4.2,4.2,1.265,6.654,4.214,6.961,9.284" stroke="rgba(0,0,0,0)" stroke-width="1" fill="url(#linear-gradient)"/>
    <path id="Path_5008" data-name="Path 5008" d="M124.2,449.4c-.81.981-2.1,3.7-4.248,4.968Q87.7,473.362,55.187,491.911c-4.4,2.528-8.921,1.054-11.541-3.342-2.749-4.611-1.807-9.356,2.8-12.035q32.349-18.828,64.829-37.431c6.051-3.455,13.114,1.358,12.93,10.3" stroke="rgba(0,0,0,0)" stroke-width="1" fill="url(#linear-gradient)"/>
    <path id="Path_5009" data-name="Path 5009" d="M45.691,334.427c-11.974-.005-23.949.021-35.923-.016-6.5-.02-9.68-2.874-9.767-8.615-.089-5.956,3.184-8.988,9.873-8.994q35.924-.035,71.847,0c6.407.006,9.678,2.934,9.793,8.6.118,5.874-3.271,9.005-9.9,9.022-11.974.031-23.949.009-35.923,0" stroke="rgba(0,0,0,0)" stroke-width="1" fill="url(#linear-gradient)"/>
    <path id="Path_5010" data-name="Path 5010" d="M570.981,209.528c-12.162,0-24.324.061-36.485-.026-5.917-.043-9.428-3.476-8.731-8.381.607-4.274,3.354-6.529,7.539-6.542q37.732-.111,75.466.031c4.831.026,7.612,3.213,7.53,7.554-.082,4.29-2.929,7.2-7.836,7.261-12.493.149-24.988.05-37.483.05Z" stroke="rgba(0,0,0,0)" stroke-width="1" fill="url(#linear-gradient)"/>
    <path id="Path_5011" data-name="Path 5011" d="M571.115,339.155c-12.166,0-24.331.03-36.5-.011-5.59-.02-8.8-2.657-8.956-7.171-.161-4.66,3.266-7.741,9-7.753q36.5-.076,72.994,0c5.49.013,8.645,2.915,8.648,7.539,0,4.661-3.082,7.36-8.689,7.383-12.166.048-24.331.015-36.5.016" stroke="rgba(0,0,0,0)" stroke-width="1" fill="url(#linear-gradient)"/>
    <path id="Path_5012" data-name="Path 5012" d="M571.1,129.747c12,0,23.993-.026,35.989.011,6.058.019,9.207,2.6,9.2,7.369,0,4.795-3.186,7.526-9.155,7.536q-36.238.06-72.478-.017c-5.806-.014-9.13-3-8.992-7.72.131-4.521,3.3-7.138,8.943-7.162,12.163-.05,24.326-.015,36.489-.017" stroke="rgba(0,0,0,0)" stroke-width="1" fill="url(#linear-gradient)"/>
    <path id="Path_5013" data-name="Path 5013" d="M570.6,274.289c-12,0-23.992.029-35.988-.018-5.616-.022-8.827-2.669-8.948-7.164-.127-4.707,3.227-7.721,9.007-7.734q36.237-.079,72.475-.009c5.958.011,9.155,2.755,9.149,7.537s-3.151,7.357-9.207,7.379c-12.163.043-24.325.013-36.488.009" stroke="rgba(0,0,0,0)" stroke-width="1" fill="url(#linear-gradient)"/>
    <path id="Path_5014" data-name="Path 5014" d="M571.158,404.1c-12.164,0-24.328.033-36.492-.018-5.735-.024-9.16-3.025-9.015-7.685.138-4.428,3.506-7.273,8.97-7.282q36.492-.06,72.984.006c5.518.012,8.669,2.863,8.688,7.477.019,4.637-3.118,7.457-8.643,7.485-12.164.063-24.328.02-36.492.017" stroke="rgba(0,0,0,0)" stroke-width="1" fill="url(#linear-gradient)"/>
    <path id="Path_5015" data-name="Path 5015" d="M555.154,370.913c-6.828,0-13.656.044-20.483-.017-5.142-.045-8.248-2.606-8.289-6.656-.041-4.078,3.012-6.682,8.208-6.7q20.982-.078,41.965.015c5.2.021,8.269,2.565,8.279,6.613.01,4.067-3.091,6.686-8.2,6.732-7.16.064-14.321.016-21.482.014" stroke="rgba(0,0,0,0)" stroke-width="1" fill="url(#linear-gradient)"/>
    <path id="Path_5016" data-name="Path 5016" d="M556.123,292.692c6.994,0,13.988-.076,20.981.026,4.826.071,7.754,2.7,7.728,6.619s-3,6.633-7.749,6.656q-21.48.106-42.961,0c-4.7-.021-7.726-2.773-7.731-6.672s2.919-6.521,7.752-6.589c7.326-.1,14.653-.026,21.98-.026Z" stroke="rgba(0,0,0,0)" stroke-width="1" fill="url(#linear-gradient)"/>
    <path id="Path_5017" data-name="Path 5017" d="M555.292,176.182c-6.993,0-13.987.046-20.979-.019-4.868-.045-7.813-2.5-7.921-6.409-.113-4.046,3.016-6.8,8.061-6.823q21.23-.084,42.458,0c4.793.02,7.8,2.593,7.92,6.459.121,4.064-2.972,6.735-8.06,6.779-7.159.061-14.319.015-21.479.013" stroke="rgba(0,0,0,0)" stroke-width="1" fill="url(#linear-gradient)"/>
    <path id="Path_5018" data-name="Path 5018" d="M555.927,227.844c6.993,0,13.986-.047,20.978.015,4.853.042,7.794,2.5,7.911,6.411.123,4.07-2.977,6.8-8.036,6.813q-21.227.071-42.455-.009c-4.795-.018-7.795-2.551-7.942-6.432-.153-4.018,3.005-6.741,8.067-6.782,7.158-.058,14.318-.015,21.477-.016" stroke="rgba(0,0,0,0)" stroke-width="1" fill="url(#linear-gradient)"/>
    <path id="Path_5019" data-name="Path 5019" d="M457.758,344.594c0,24.655.255,49.313-.109,73.962-.171,11.519,4.43,19.031,14.7,24.265,34.711,17.693,51.522,57.2,40.777,94.757-10.544,36.852-46.37,61.485-84.776,58.289-35.787-2.979-65.762-29.785-72.92-65.213a80.63,80.63,0,0,1,42.173-87.66c10.7-5.462,15.081-13.208,15.009-25.085-.307-49.973-.15-99.95-.112-149.925.01-12.67,7.215-22.047,18.232-24.037,14.682-2.653,26.915,7.711,26.99,23.185.125,25.82.034,51.641.036,77.462" stroke="rgba(0,0,0,0)" stroke-width="1" fill="url(#linear-gradient)"/>
  </g>
</svg>
