<svg xmlns="http://www.w3.org/2000/svg" xmlns:xlink="http://www.w3.org/1999/xlink" width="554.67" height="555.19" viewBox="0 0 554.67 555.19">
  <defs>
    <linearGradient id="linear-gradient" x1="0.5" x2="0.343" y2="0.783" gradientUnits="objectBoundingBox">
      <stop offset="0" stop-color="#30d298"/>
      <stop offset="0" stop-color="#30d197"/>
      <stop offset="1" stop-color="#18694c"/>
    </linearGradient>
    <clipPath id="clip-path">
      <rect id="Rectangle_496" data-name="Rectangle 496" width="554.67" height="555.19" stroke="rgba(0,0,0,0)" stroke-width="1" fill="url(#linear-gradient)"/>
    </clipPath>
  </defs>
  <g id="Group_7412" data-name="Group 7412" transform="translate(-171 1054)">
    <g id="Group_7411" data-name="Group 7411" transform="translate(171 -1054)" clip-path="url(#clip-path)">
      <path id="Path_5020" data-name="Path 5020" d="M438.115,192.235c0,42.994.058,85.988-.1,128.981-.015,4.125,1.152,6.533,4.64,8.879,42.344,28.474,62.454,80.369,50.767,130.427-11.349,48.606-52.521,86.269-102.088,93.387-78.69,11.3-147.766-53.75-140.512-132.866,3.518-38.362,21.684-68.759,53.348-90.785,3.684-2.563,4.765-5.125,4.76-9.325q-.156-127.232-.068-254.463c.017-29.924,17.812-54.788,45.11-63.389,41.927-13.209,83.851,17.639,84.1,62.172.232,42.326.05,84.655.048,126.982m-106.694,6.88c0,45.155-.066,90.31.107,135.464.016,4.276-1.33,6.394-5.078,8.386a100.73,100.73,0,0,0,60.263,188.916c42.517-5.4,78.22-39.071,85.755-80.872,7.945-44.077-12.572-87.3-51.433-107.777-4.067-2.144-5.557-4.436-5.549-9.1q.231-133.464,0-266.929a53.134,53.134,0,0,0-2.637-17.12c-6.729-19.312-26.689-30.445-47.033-26.891a41.974,41.974,0,0,0-34.352,40.956c-.124,44.988-.039,89.976-.044,134.964" stroke="rgba(0,0,0,0)" stroke-width="1" fill="url(#linear-gradient)"/>
      <path id="Path_5021" data-name="Path 5021" d="M509.349,126.593c-12.162,0-24.324.061-36.485-.026-5.917-.043-9.428-3.476-8.731-8.381.607-4.274,3.354-6.529,7.539-6.542q37.732-.111,75.466.031c4.831.026,7.612,3.213,7.53,7.554-.082,4.29-2.929,7.2-7.836,7.261-12.493.149-24.988.05-37.483.05Z" stroke="rgba(0,0,0,0)" stroke-width="1" fill="url(#linear-gradient)"/>
      <path id="Path_5022" data-name="Path 5022" d="M509.483,256.22c-12.166,0-24.331.03-36.5-.011-5.59-.02-8.8-2.657-8.956-7.171-.161-4.66,3.266-7.741,9-7.753q36.5-.077,72.994,0c5.49.013,8.645,2.915,8.648,7.539,0,4.661-3.082,7.36-8.689,7.383-12.166.048-24.331.015-36.5.016" stroke="rgba(0,0,0,0)" stroke-width="1" fill="url(#linear-gradient)"/>
      <path id="Path_5023" data-name="Path 5023" d="M509.473,46.813c12,0,23.993-.027,35.989.01,6.058.019,9.207,2.6,9.2,7.369,0,4.795-3.186,7.526-9.155,7.536q-36.238.06-72.478-.017c-5.806-.014-9.13-3-8.992-7.72.131-4.521,3.3-7.138,8.943-7.162,12.163-.05,24.326-.015,36.489-.016" stroke="rgba(0,0,0,0)" stroke-width="1" fill="url(#linear-gradient)"/>
      <path id="Path_5024" data-name="Path 5024" d="M508.971,191.354c-12,0-23.992.029-35.988-.018-5.616-.022-8.827-2.669-8.948-7.164-.127-4.707,3.227-7.721,9.007-7.734q36.237-.08,72.475-.009c5.958.011,9.155,2.755,9.149,7.537s-3.151,7.357-9.207,7.379c-12.163.043-24.325.013-36.488.009" stroke="rgba(0,0,0,0)" stroke-width="1" fill="url(#linear-gradient)"/>
      <path id="Path_5025" data-name="Path 5025" d="M509.526,321.161c-12.164,0-24.328.033-36.492-.018-5.735-.024-9.16-3.025-9.015-7.685.138-4.428,3.506-7.273,8.97-7.282q36.492-.06,72.984.006c5.518.012,8.669,2.863,8.688,7.477.019,4.637-3.118,7.457-8.643,7.485-12.163.063-24.328.02-36.492.017" stroke="rgba(0,0,0,0)" stroke-width="1" fill="url(#linear-gradient)"/>
      <path id="Path_5026" data-name="Path 5026" d="M493.522,287.978c-6.828,0-13.656.044-20.483-.017-5.142-.045-8.248-2.606-8.289-6.656-.041-4.078,3.012-6.682,8.208-6.7q20.982-.078,41.965.015c5.2.021,8.269,2.565,8.279,6.613.01,4.067-3.09,6.686-8.2,6.732-7.16.064-14.321.016-21.482.014" stroke="rgba(0,0,0,0)" stroke-width="1" fill="url(#linear-gradient)"/>
      <path id="Path_5027" data-name="Path 5027" d="M494.491,209.757c6.994,0,13.988-.076,20.981.026,4.826.071,7.754,2.7,7.728,6.619s-3.005,6.633-7.749,6.656q-21.48.106-42.961,0c-4.7-.021-7.726-2.773-7.731-6.672s2.919-6.521,7.752-6.589c7.326-.1,14.653-.026,21.98-.026Z" stroke="rgba(0,0,0,0)" stroke-width="1" fill="url(#linear-gradient)"/>
      <path id="Path_5028" data-name="Path 5028" d="M493.66,93.247c-6.993,0-13.987.046-20.979-.019-4.868-.045-7.813-2.5-7.921-6.409-.113-4.046,3.016-6.8,8.061-6.823q21.229-.084,42.458,0c4.793.02,7.8,2.593,7.92,6.459.121,4.064-2.972,6.735-8.06,6.779-7.159.061-14.319.015-21.479.013" stroke="rgba(0,0,0,0)" stroke-width="1" fill="url(#linear-gradient)"/>
      <path id="Path_5029" data-name="Path 5029" d="M494.3,144.909c6.993,0,13.986-.047,20.978.015,4.853.042,7.794,2.5,7.911,6.411.123,4.07-2.977,6.8-8.036,6.813q-21.227.071-42.455-.009c-4.8-.018-7.8-2.551-7.942-6.432-.153-4.018,3-6.741,8.067-6.782,7.158-.058,14.318-.015,21.477-.016" stroke="rgba(0,0,0,0)" stroke-width="1" fill="url(#linear-gradient)"/>
      <path id="Path_5030" data-name="Path 5030" d="M396.126,261.659c0,24.655.255,49.313-.109,73.962-.171,11.519,4.43,19.031,14.7,24.265,34.711,17.693,51.522,57.2,40.776,94.757-10.543,36.852-46.369,61.485-84.775,58.289-35.787-2.979-65.762-29.785-72.92-65.213a80.63,80.63,0,0,1,42.173-87.66c10.7-5.462,15.081-13.208,15.009-25.085-.307-49.973-.15-99.95-.112-149.925.01-12.67,7.215-22.047,18.232-24.037,14.682-2.653,26.915,7.711,26.99,23.185.125,25.82.034,51.641.036,77.462" stroke="rgba(0,0,0,0)" stroke-width="1" fill="url(#linear-gradient)"/>
      <path id="Path_5031" data-name="Path 5031" d="M212.632,420.424c-1.718,4.934-5.877,7.112-11.71,6.133-4.317-.724-7.8-5.013-7.826-9.96-.071-13.917-.046-27.834-.058-41.752,0-1.509,0-3.018,0-5.283-1.341.946-2.184,1.5-2.989,2.113q-7.539,5.7-15.066,11.427c-4.836,3.661-11.292,3.06-14.915-1.377-3.707-4.539-2.891-11.172,2.1-15.027Q175.978,356.042,190,345.665a6.744,6.744,0,0,0,3.115-6.165c-.124-28.921-.072-57.843-.077-86.765,0-1.045-.086-2.09-.157-3.69-1.018.868-1.673,1.353-2.243,1.923Q159.5,282.1,128.334,313.2a5.884,5.884,0,0,0-1.815,5.745c1.7,11.5,3.249,23.02,4.764,34.545.871,6.63-2.931,11.813-8.952,12.448-6.164.65-10.809-3.366-11.67-10-.853-6.572-1.776-13.135-2.687-19.7a21.049,21.049,0,0,0-.671-2.255c-5.912,6.028-11.411,11.682-16.964,17.283q-7.806,7.875-15.7,15.658c-4.427,4.375-10.707,4.6-14.906.577-4.269-4.084-4.289-10.7.128-15.155q14.693-14.829,29.52-29.523c.985-.981,2.151-1.779,3.232-2.662q-.227-.477-.455-.954-7.958-1.134-15.916-2.262c-1.936-.271-3.881-.484-5.82-.74-6.16-.814-9.939-5.438-9.432-11.528a9.935,9.935,0,0,1,11.341-9.116c10.469,1.184,20.949,2.453,31.313,4.31,5.4.968,9.033-.024,13.027-4.128,19.331-19.862,39.076-39.321,58.669-58.928.737-.738,1.418-1.532,2.5-2.705-1.436-.082-2.349-.18-3.261-.18-29.357-.005-58.714.035-88.07-.069a5.411,5.411,0,0,0-4.831,2.52q-10.4,13.8-20.868,27.539c-4.292,5.651-10.68,6.822-15.607,2.879-4.732-3.788-5.042-10.22-.839-15.679s8.354-11,12.907-17.009c-1.617-.083-2.537-.171-3.456-.171-13.592-.007-27.183.041-40.774-.041a20.384,20.384,0,0,1-6.713-.969A9.968,9.968,0,0,1,.2,221.586c1.026-5.182,4.758-8.384,10.081-8.4,13.917-.055,27.835-.028,41.752-.034h5.332c-1.082-1.573-1.795-2.69-2.589-3.747-3.587-4.777-7.223-9.519-10.794-14.308-3.954-5.3-3.28-11.731,1.551-15.313,4.743-3.517,11.182-2.265,15.158,2.966,7.169,9.431,14.279,18.907,21.557,28.253a5.758,5.758,0,0,0,3.917,2.064c29.682.11,59.365.077,89.048.063.728,0,1.457-.09,2.893-.185-1.168-1.263-1.9-2.113-2.7-2.906q-31.016-31.016-62.01-62.051a4.94,4.94,0,0,0-4.841-1.575q-16.766,2.511-33.591,4.611a18.815,18.815,0,0,1-7.383-.345c-4.557-1.325-7.024-5.746-6.6-10.74a9.856,9.856,0,0,1,8.452-9.04c6.967-1.136,13.979-2,20.971-2.987.518-.073,1.03-.2,2.175-.418-1.05-1.144-1.772-1.991-2.556-2.777Q74.931,109.6,59.826,94.494a10.069,10.069,0,0,1-2.752-10.749c1.334-4.31,4.462-6.6,8.809-7.165,3.887-.51,6.854,1.339,9.508,4.013q14.587,14.7,29.269,29.3c.8.8,1.637,1.57,2.964,2.839,1.088-7.8,2.129-14.847,3.04-21.913.837-6.493,5.685-10.657,11.748-9.928,5.918.712,9.723,5.743,8.893,12.214-1.507,11.746-3.283,23.458-4.728,35.211a6.591,6.591,0,0,0,1.467,4.835q31.459,31.719,63.146,63.216c.365.364.771.687,1.486,1.319a19.274,19.274,0,0,0,.337-2.4c.021-29.683.056-59.367-.061-89.049a6.156,6.156,0,0,0-2.158-4.2c-9.328-7.3-18.789-14.423-28.234-21.568-3.389-2.563-5.227-5.86-4.631-10.13a10.324,10.324,0,0,1,16.652-6.844c5.93,4.386,11.78,8.879,18.275,13.785.08-1.79.178-3,.181-4.211.026-14.025.014-28.051.065-42.077.024-6.574,4.188-10.91,10.357-10.931,6.148-.021,10.319,4.3,10.343,10.925.05,14.026.014,28.052.013,42.078,0,1.163,0,2.327,0,4.069,1.2-.712,1.927-1.057,2.556-1.531,5.468-4.12,10.827-8.392,16.4-12.356A10.314,10.314,0,0,1,247.867,76.48a17.343,17.343,0,0,1-4.427,4.664c-9.12,7.035-18.376,13.9-27.45,20.988a6.14,6.14,0,0,0-2.09,4.237q-.165,117.1-.037,234.2a5.788,5.788,0,0,0,1.97,4c9.507,7.422,19.207,14.6,28.73,22,6.666,5.181,5.927,14.39-1.4,17.96-4.113,2-8.016,1.06-11.579-1.672q-7.761-5.953-15.573-11.839c-.492-.372-1.051-.656-2.193-1.36,0,1.637,0,2.758,0,3.879-.029,14.566-.034,29.132-.138,43.7-.008,1.1-.728,2.185-1.124,3.286-1.4-2.625-3.766-2.014-5.654-1.21-2.592,1.105-4.049,3.315-3.865,7.26,1.023-.963,1.889-1.384,1.955-1.906.438-3.461,2.748-3.841,5.55-3.7a7.271,7.271,0,0,0,2.092-.54" stroke="rgba(0,0,0,0)" stroke-width="1" fill="url(#linear-gradient)"/>
    </g>
  </g>
</svg>
