<svg xmlns="http://www.w3.org/2000/svg" xmlns:xlink="http://www.w3.org/1999/xlink" width="167.629" height="167.63" viewBox="0 0 167.629 167.63"><defs><linearGradient id="a" x1="0.084" y1="0.081" x2="0.821" y2="0.895" gradientUnits="objectBoundingBox"><stop offset="0" stop-color="#30d298"/><stop offset="0" stop-color="#30d197"/><stop offset="1" stop-color="#18694c"/></linearGradient><clipPath id="b"><rect width="167.629" height="167.63" stroke="rgba(0,0,0,0)" stroke-width="1" fill="url(#a)"/></clipPath></defs><g clip-path="url(#b)"><path d="M83.744,167.63C37.952,167.719.064,129.871,0,83.974-.064,37.821,37.736-.022,83.881,0c45.911.023,83.784,37.852,83.749,83.651A84.124,84.124,0,0,1,83.744,167.63m68.539-83.467c.134-37.383-30.869-68.7-68.116-68.815-37.616-.113-68.732,30.889-68.821,68.566-.087,37.189,31.192,68.375,68.566,68.362,37.1-.013,68.24-31.029,68.371-68.112" transform="translate(0 0)" fill="url(#a)"/><path d="M83.537,168.038a82.6,82.6,0,0,1-32.518-6.661,84.589,84.589,0,0,1-14.259-7.8A85.8,85.8,0,0,1,14,130.8a84.884,84.884,0,0,1-7.8-14.28,83.5,83.5,0,0,1-.07-65.356,84.66,84.66,0,0,1,7.794-14.338A85.452,85.452,0,0,1,36.729,13.98,84.634,84.634,0,0,1,51.051,6.168,83.43,83.43,0,0,1,83.793-.5h.042a83.168,83.168,0,0,1,32.637,6.676,84.891,84.891,0,0,1,14.3,7.8,85.769,85.769,0,0,1,22.808,22.782,84.561,84.561,0,0,1,7.805,14.276,82.625,82.625,0,0,1,6.651,32.567A84.443,84.443,0,0,1,83.7,168.038ZM83.793.409a83.36,83.36,0,0,0-.256,166.721h.16A83.732,83.732,0,0,0,167.13,83.606a82.394,82.394,0,0,0-24.512-58.67A82.8,82.8,0,0,0,83.835.409Zm.073,152.275h-.023a67.5,67.5,0,0,1-13.814-1.432A68.33,68.33,0,0,1,57.1,147.157a69.98,69.98,0,0,1-11.75-6.456,70.935,70.935,0,0,1-18.7-18.722,69.393,69.393,0,0,1-6.38-11.65,67.481,67.481,0,0,1-4.032-12.8,66.519,66.519,0,0,1-1.388-13.66,68.284,68.284,0,0,1,5.518-26.758A69.674,69.674,0,0,1,26.781,45.39,70.424,70.424,0,0,1,45.484,26.7a69.506,69.506,0,0,1,11.715-6.4,67.983,67.983,0,0,1,26.718-5.461h.206a66.927,66.927,0,0,1,13.72,1.466,67.728,67.728,0,0,1,12.835,4.114,69.48,69.48,0,0,1,11.657,6.466,70.851,70.851,0,0,1,18.607,18.8,69.887,69.887,0,0,1,6.365,11.741,68.332,68.332,0,0,1,4.015,12.908,67.638,67.638,0,0,1,1.37,13.778,66.882,66.882,0,0,1-1.464,13.666,67.849,67.849,0,0,1-4.094,12.8,69.683,69.683,0,0,1-6.429,11.635,70.98,70.98,0,0,1-18.679,18.608,69.749,69.749,0,0,1-11.662,6.387,67.949,67.949,0,0,1-12.818,4.051A67,67,0,0,1,83.867,152.684Zm.051-136.928A68.329,68.329,0,0,0,15.755,83.869a67,67,0,0,0,19.968,47.673,67.665,67.665,0,0,0,48.121,20.234h.023c36.685-.013,67.787-31,67.917-67.66a67.668,67.668,0,0,0-19.909-48.063,67.175,67.175,0,0,0-47.754-20.3Z" transform="translate(0.046 0.046)" fill="url(#a)"/><path d="M30.99,108.28H60.21c4.23,18.031,12.956,26.219,27.439,25.885,13.293-.306,22.41-9.542,25.3-26.042h29.237c-2.625,18.114-22.525,41.343-50.866,43.36-34.781,2.476-56.958-23.776-60.333-43.2" transform="translate(-2.843 -9.919)" fill="url(#a)"/><path d="M86.72,152.055a57.84,57.84,0,0,1-39.047-14.836,59.733,59.733,0,0,1-6.5-6.817,57.356,57.356,0,0,1-5.073-7.33,45.486,45.486,0,0,1-5.609-14.76l-.092-.532H60.515l.082.35c4.088,17.427,12.4,25.544,26.152,25.544.274,0,.555,0,.834-.01,13.186-.3,22.018-9.419,24.867-25.666l.066-.376H142.66l-.075.519a42.055,42.055,0,0,1-5.123,14.291,58.545,58.545,0,0,1-10.8,13.691A59.5,59.5,0,0,1,111,146.77a55.883,55.883,0,0,1-19.695,5.12C89.771,152,88.229,152.055,86.72,152.055ZM31.48,108.688c1.84,9.686,8.088,20.059,16.8,27.854a56.781,56.781,0,0,0,38.441,14.6c1.488,0,3.007-.054,4.516-.162a56.987,56.987,0,0,0,34.8-15.522c8.3-7.815,14.094-17.843,15.571-26.932H113.278a44.972,44.972,0,0,1-3.273,10.723,29.192,29.192,0,0,1-5.535,8.234,22.964,22.964,0,0,1-7.546,5.172,25.407,25.407,0,0,1-9.321,1.913c-.286.007-.573.01-.855.01a27.679,27.679,0,0,1-9.627-1.588,21.816,21.816,0,0,1-7.674-4.858,29.4,29.4,0,0,1-5.763-8.2,54.7,54.7,0,0,1-3.89-11.249Z" transform="translate(-2.788 -9.873)" fill="url(#a)"/><path d="M68.756,61.178C74.851,68.656,81,76.091,87.014,83.633c2.108,2.644,4.27,4.589,7.822,5.513,8.384,2.183,12.9,11.383,10.244,19.741a15.634,15.634,0,0,1-19.4,10.333A15.794,15.794,0,0,1,74.817,99.683a18.343,18.343,0,0,0,.222-8.241c-2.17-10.119-4.718-20.158-7.124-30.227l.842-.037" transform="translate(-6.23 -5.612)" fill="url(#a)"/><path d="M90.112,120.313a15.52,15.52,0,0,1-4.625-.706,17.468,17.468,0,0,1-5.816-3.074,15.915,15.915,0,0,1-3.968-4.728A16.581,16.581,0,0,1,74.32,99.52a17.838,17.838,0,0,0,.217-8.029c-1.579-7.365-3.39-14.814-5.14-22.018-.653-2.686-1.328-5.464-1.982-8.2l-.128-.534.549-.025.422-.019.42-.019.228-.01.144.177c1.732,2.125,3.5,4.281,5.2,6.367C78.557,72.467,83,77.9,87.311,83.3c2.043,2.563,4.115,4.454,7.581,5.357a14.86,14.86,0,0,1,9.3,7.323,16.6,16.6,0,0,1,1.258,12.995A16.277,16.277,0,0,1,95.067,119.51,15.746,15.746,0,0,1,90.112,120.313ZM68.426,61.6c.613,2.56,1.243,5.15,1.853,7.661,1.752,7.209,3.564,14.664,5.146,22.042a18.776,18.776,0,0,1-.227,8.452A15.318,15.318,0,0,0,85.757,118.74a14.613,14.613,0,0,0,4.355.665,15.385,15.385,0,0,0,14.478-10.7A15.691,15.691,0,0,0,103.4,96.422a13.96,13.96,0,0,0-8.738-6.883,13.034,13.034,0,0,1-4.61-2.187A18.771,18.771,0,0,1,86.6,83.869c-4.3-5.4-8.749-10.829-13.049-16.082-1.66-2.028-3.375-4.124-5.061-6.192Z" transform="translate(-6.173 -5.565)" fill="url(#a)"/><path d="M57.753,38.354,62.5,35.527c2.124,3.651,4.122,7.084,6.233,10.712l-4.761,2.735L57.753,38.354" transform="translate(-5.298 -3.259)" fill="url(#a)"/><path d="M63.744,49.529l-.228-.389L57.3,38.521l-.228-.389.387-.231L62.2,35.074l.394-.235,1.465,2.518,5,8.591.23.395-.4.228-3.919,2.251ZM58.31,38.451l5.763,9.842.452-.26,3.522-2.023-4.769-8.2-1-1.725Z" transform="translate(-5.236 -3.196)" fill="url(#a)"/><path d="M46.322,68.765,35.6,62.567l2.657-4.789L48.9,63.886l-2.581,4.879" transform="translate(-3.266 -5.3)" fill="url(#a)"/><path d="M46.441,69.331,34.923,62.674,36.1,60.561l1.7-3.066.224-.4,11.428,6.556-.932,1.761-1.855,3.506Zm-10.29-7,9.928,5.739,1.634-3.089L48.235,64l-9.867-5.66L36.89,61Z" transform="translate(-3.204 -5.238)" fill="url(#a)"/><path d="M120.913,35.536l4.73,2.717c-2.017,3.546-3.957,6.956-6.058,10.648l-4.875-2.587c2.043-3.55,4.013-6.973,6.2-10.777" transform="translate(-10.523 -3.26)" fill="url(#a)"/><path d="M119.7,49.445l-1.035-.549-4.23-2.244-.415-.22.234-.407,4.821-8.377,1.608-2.793.393.226,4.73,2.717.392.225L125,40.132l-5.081,8.93Zm-4.423-3.375,3.814,2.024.256.136,4.863-8.547.754-1.325-3.945-2.265L119.861,38.1Z" transform="translate(-10.46 -3.197)" fill="url(#a)"/><path d="M147.755,62.485,137,68.682,134.2,64l10.537-6.173,3.021,4.653" transform="translate(-12.311 -5.305)" fill="url(#a)"/><path d="M136.781,69.237l-3.272-5.454.4-.232,5.713-3.346,5.2-3.045.236.364,3.021,4.653.261.4-.415.239-8.445,4.868ZM134.759,64.1,137.1,68,139.02,66.9l8.03-4.629-2.524-3.888-4.45,2.607Z" transform="translate(-12.248 -5.244)" fill="url(#a)"/><path d="M94.516,28.594V40.571h-4.9V28.825l4.9-.231" transform="translate(-8.221 -2.623)" fill="url(#a)"/><path d="M94.924,40.977h-5.81V28.343l.433-.02,2.3-.108,3.076-.145Zm-4.9-.908h3.994V29.022l-2.125.1-1.869.088Z" transform="translate(-8.175 -2.575)" fill="url(#a)"/><path d="M40.592,89.568v4.907H28.839c-.077-1.534-.155-3.081-.247-4.907Z" transform="translate(-2.623 -8.217)" fill="url(#a)"/><path d="M28.066,89.068H41v5.816H28.359l-.106-2.114c-.051-1.007-.1-2.059-.162-3.225Zm12.023.908H29.021c.049.979.095,1.88.138,2.748l.063,1.251H40.09Z" transform="translate(-2.575 -8.171)" fill="url(#a)"/><path d="M154.558,89.531v4.947H142.806c-.074-1.621-.145-3.162-.227-4.947Z" transform="translate(-13.08 -8.213)" fill="url(#a)"/><path d="M142.056,89.031h12.909v5.856h-12.64l-.058-1.257c-.061-1.33-.121-2.642-.189-4.124Zm12,.908h-11.05c.059,1.29.113,2.463.167,3.649l.018.39h10.864Z" transform="translate(-13.032 -8.168)" fill="url(#a)"/></g></svg>