<svg xmlns="http://www.w3.org/2000/svg" xmlns:xlink="http://www.w3.org/1999/xlink" width="163.841" height="156.02" viewBox="0 0 163.841 156.02"><defs><linearGradient id="a" x1="0.084" y1="0.081" x2="0.821" y2="0.895" gradientUnits="objectBoundingBox"><stop offset="0" stop-color="#30d298"/><stop offset="0" stop-color="#30d197"/><stop offset="1" stop-color="#18694c"/></linearGradient><clipPath id="b"><rect width="163.841" height="156.02" stroke="rgba(0,0,0,0)" stroke-width="1" fill="url(#a)"/></clipPath></defs><g clip-path="url(#b)"><path d="M68.87,84.311q-29.106,0-58.212-.007a29.422,29.422,0,0,1-4.528-.192c-3.223-.506-4.783-2.565-4.637-5.767.135-2.985,1.691-4.89,4.775-5.213a43.428,43.428,0,0,1,4.533-.145q57.593-.01,115.186-.015a26.61,26.61,0,0,0,26.537-23.425c1.7-12.625-6.989-25.142-19.827-28.574-18.543-4.957-36.26,11.657-32.607,30.558a33.233,33.233,0,0,1,.728,5.287c.087,2.944-1.252,5.109-4.266,5.7-3.038.593-5.55-.412-6.615-3.5C81.923,35.764,94.5,10.155,119.716,6.4c26.207-3.9,47.1,17.025,44.1,43.567-2.334,20.622-17.551,34.277-38.382,34.335-18.853.053-37.707.012-56.561.012" transform="translate(-0.258 -1.033)" stroke="rgba(0,0,0,0)" stroke-width="1" fill="url(#a)"/><path d="M46.692,125.194c12.244,0,24.5.343,36.729-.1,12.7-.46,24.8,9.614,26.029,22.633,1.363,14.472-8.037,27.489-21.068,29.665-14.346,2.395-26.971-5.563-30.551-19.382a21.962,21.962,0,0,1-.562-6.119c.095-3.042,1.889-4.763,4.917-5.047,3-.282,5.067,1.018,5.95,3.928.4,1.307.491,2.7.841,4.027,1.918,7.251,9.181,12.106,16.241,10.894,7.671-1.316,13.36-8.485,12.6-15.875a14.668,14.668,0,0,0-14.741-13.333q-36.525.02-73.051.047c-1.376,0-2.752,0-4.126-.057-3.589-.16-5.628-2.126-5.888-5.628-.237-3.184,2.433-5.6,6.23-5.622,13.482-.067,26.965-.026,40.447-.031" transform="translate(0 -21.793)" stroke="rgba(0,0,0,0)" stroke-width="1" fill="url(#a)"/><path d="M30.555,52.437c-7.565,0-15.131.021-22.7-.008C3.584,52.412.712,50.089.693,46.73c-.02-3.416,2.77-5.8,7.111-5.813,14.855-.048,29.71.021,44.565-.045A14.558,14.558,0,0,0,66.411,30.213,14.714,14.714,0,0,0,42.589,15.207a14.556,14.556,0,0,0-5.007,10.462c-.324,4.909-4.473,7.818-8.1,5.54a8,8,0,0,1-3.187-5.562C25.686,14.072,35.454,2.426,47.022.429c13.557-2.341,26.3,5.09,30.252,17.644,5.458,17.327-7.017,34.3-25.261,34.36-7.153.021-14.3,0-21.458,0" transform="translate(-0.121 0)" stroke="rgba(0,0,0,0)" stroke-width="1" fill="url(#a)"/></g></svg>